<!-- icon666.com - MILLIONS vector ICONS FREE --><svg id="Filled" viewBox="0 0 512 512" xmlns="http://www.w3.org/2000/svg"><circle cx="152" cy="168" fill="#7e8589" r="128"></circle><circle cx="152" cy="168" fill="#e9eef2" r="96"></circle><path d="m472 128h-208a16 16 0 0 0 -16 16v120a16 16 0 0 0 16 16h144l64 56-8-56h8a16 16 0 0 0 16-16v-120a16 16 0 0 0 -16-16z" fill="#e9eef2"></path><path d="m344 264h-216a16 16 0 0 0 -16 16v128a16 16 0 0 0 16 16h16l-32 56 80-56h152a16 16 0 0 0 16-16v-128a16 16 0 0 0 -16-16z" fill="#99c7e8"></path><path d="m120 120v104l88-56z" fill="#eb423f"></path><path d="m368.01 184a16 16 0 0 0 -32 0s-1.5 22.5 32 56c0 0 32-30.75 32-56a16 16 0 0 0 -32 0" fill="#99c7e8"></path><path d="m104 295.281v112.719a24.028 24.028 0 0 0 24 24h2.215l-25.161 44.031a8 8 0 0 0 11.534 10.523l77.933-54.554h149.479a24.028 24.028 0 0 0 24-24v-120h36.994l61.738 54.021a8 8 0 0 0 13.188-7.153l-6.7-46.9a24.03 24.03 0 0 0 22.78-23.968v-120a24.028 24.028 0 0 0 -24-24h-192.719a135.721 135.721 0 0 0 -127.281-88c-74.99 0-136 61.01-136 136a135.721 135.721 0 0 0 88 127.281zm103.363-39.281a104.818 104.818 0 0 0 32.637-32.637v32.637zm-55.363 0a88 88 0 1 1 88-88 88.1 88.1 0 0 1 -88 88zm200 152a8.009 8.009 0 0 1 -8 8h-152a8 8 0 0 0 -4.588 1.446l-50.755 35.529 14.289-25.006a8 8 0 0 0 -6.946-11.969h-16a8.009 8.009 0 0 1 -8-8v-128a8.009 8.009 0 0 1 8-8h216a8.009 8.009 0 0 1 8 8zm128-264v120a8.009 8.009 0 0 1 -8 8h-8a8 8 0 0 0 -7.92 9.132l4.948 34.639-47.76-41.792a8 8 0 0 0 -5.268-1.979h-41.376a24.039 24.039 0 0 0 -22.624-16h-88v-112a8.009 8.009 0 0 1 8-8h208a8.009 8.009 0 0 1 8 8zm-328-96a119.743 119.743 0 0 1 110.044 72.086 23.92 23.92 0 0 0 -14.619 6.582 103.995 103.995 0 1 0 -136.757 136.757 23.92 23.92 0 0 0 -6.582 14.619 120.015 120.015 0 0 1 47.914-230.044z"></path><path d="m211.831 160.977-88-48a8 8 0 0 0 -11.831 7.023v104a8 8 0 0 0 12.3 6.749l88-56a8 8 0 0 0 -.464-13.772zm-83.831 48.45v-75.95l64.266 35.053z"></path><path d="m328 288h-184a8 8 0 0 0 0 16h184a8 8 0 0 0 0-16z"></path><path d="m328 320h-184a8 8 0 0 0 0 16h184a8 8 0 0 0 0-16z"></path><path d="m328 352h-184a8 8 0 0 0 0 16h184a8 8 0 0 0 0-16z"></path><path d="m328 384h-184a8 8 0 0 0 0 16h184a8 8 0 0 0 0-16z"></path><path d="m368.01 248a7.977 7.977 0 0 0 5.543-2.231c3.527-3.39 34.457-33.915 34.457-61.769a23.988 23.988 0 0 0 -40-17.874 23.988 23.988 0 0 0 -40 17.657c-.161 3.9.385 27.916 34.342 61.874a7.973 7.973 0 0 0 5.658 2.343zm-24-64a8 8 0 0 1 16 0 8 8 0 0 0 16 0 8 8 0 0 1 16 0c0 14.621-14.3 33.667-23.989 44.436-23.393-25.676-24.01-42.72-24.021-43.984a3.194 3.194 0 0 0 .01-.452z"></path></svg>